<svg xmlns="http://www.w3.org/2000/svg" xml:space="preserve" width="238.987mm" height="44.9535mm" version="1.1" style="shape-rendering:geometricPrecision; text-rendering:geometricPrecision; image-rendering:optimizeQuality; fill-rule:evenodd; clip-rule:evenodd" viewBox="0 0 23927.59 4500.78" xmlns:xlink="http://www.w3.org/1999/xlink" xmlns:xodm="http://www.corel.com/coreldraw/odm/2003">
 <defs>
  <style type="text/css">
   
    .fil2 {fill:#FEFEFE}
    .fil0 {fill:#121212}
    .fil1 {fill:#FEFEFE}
   
  </style>
 </defs>
 <g id="Layer_x0020_1">
  <metadata id="CorelCorpID_0Corel-Layer"></metadata>
  <path class="fil0" d="M9348.72 4376.03l3427.93 -9.93 -8.55 -794.73 -2196.73 -24.79c-76.53,-7.36 -3.79,3.7 -74.14,-10.87 -9.34,-1.92 -23.24,-8.58 -30.44,-10.45l-44.59 -38.57c-1.5,5.16 -12.05,-20.71 -13.8,-28.31l17.99 -810.61 2067.71 -11.34 -12.35 -834.94 -2040.7 5.77c-84.38,-129.78 -55.29,-745.48 -22.95,-879.42l2273.52 -2.1 -7.9 -833.54 -3320.99 1.31 -14.01 4282.53z" data-index="0" style="opacity: 1;"></path>
  <path class="fil0" d="M13456.58 4373.97l3424.52 -12.7 -6.85 -792.49 -2344.1 -26.05c-54.25,-192.94 -56.7,-713.61 -0.55,-891.09l2070.3 -18.13 -10.95 -832.03 -2043.36 6.51c-84.18,-134.26 -51.13,-738.06 -24.59,-880.25l2276.82 -3 -11.6 -833.35 -3319.94 3.66 -9.7 4278.91z" data-index="1" style="opacity: 1;"></path>
  <polygon class="fil0" points="5542.52,4371.91 6641.18,4377.76 6644.09,2796.27 8584.81,2796.04 8584.66,1946.48 6658.69,1942.03 6644.78,939.59 8746.12,932.76 8749.38,86.94 5542.82,78.41 "></polygon>
  <path class="fil0" d="M23233.03 645.05c0,0 0,0 0,0zm-1459.8 2520.38c-130.48,-66.55 -12.04,7.73 -95.74,-62.76l-1750.5 -2215.94c-115.33,-144.34 -340.24,-495.92 -576.66,-186.8l-904.44 2165.18c-823.41,80.75 -1100.52,640.5 -885.55,1149.26 216.31,511.91 989.33,667.64 1427,234.04 164.83,-163.23 315.55,-422.57 220.77,-751.05 -115.03,-398.63 -374.88,-290.14 -211.87,-662.01 193.67,-441.74 467.27,-1038.7 612.3,-1493.24l1837.04 2287.31c137.38,174.06 413.93,523.95 619.75,133.19l905.19 -2126.39c880.65,-59.98 1079.92,-710.47 892.81,-1146.72 -371.79,-866.58 -1843.9,-503 -1671.22,468.17 64.69,363.62 394.78,336.63 221.36,704.65 -220.32,467.57 -471.27,1034.35 -640.24,1503.09z" data-index="2" style="opacity: 1;"></path>
  <path class="fil0" d="M1429.01 2099.02l-698.18 0.94c-321.1,424.92 -736.08,612 -730.77,847.49l2527.82 6.99 4.4 -2876.69 -1101.16 0.47 -2.1 2020.8z" data-index="3"></path>
  <path class="fil0" d="M1433.46 4378.09l3663.63 -16.92c-24.89,-137.59 -416.67,-458.89 -527.96,-582.38 -296.2,-328.57 -215.56,-315.26 -809.32,-313.57 -775.87,2.25 -1558.08,6.89 -2329.15,-2.11l2.79 914.98z" data-index="4"></path>
  <path class="fil1" d="M19628.52 3614.26c237.96,170.13 385.13,155.97 511.22,-112.94 149.02,-317.7 -302.91,-480.46 -447.78,-249.46 -63.99,102.02 -87.19,228.09 -63.44,362.4z" data-index="5"></path>
  <circle class="fil2" cx="18366.45" cy="3678.49" r="437.8"></circle>
  <circle class="fil2" cx="23072.19" cy="805.9" r="437.8"></circle>
 </g>
</svg>