<svg xmlns="http://www.w3.org/2000/svg" xmlns:xlink="http://www.w3.org/1999/xlink" xmlns:xodm="http://www.corel.com/coreldraw/odm/2003" xml:space="preserve" version="1.1" style="shape-rendering:geometricPrecision; text-rendering:geometricPrecision; image-rendering:optimizeQuality; fill-rule:evenodd; clip-rule:evenodd" viewBox="7666.18 5311.65 12388.78 8662.1">
 <defs>
  <style type="text/css">
   
    .fil1 {fill:#FEFEFE}
    .fil0 {fill:#201E1E}
   
  </style>
 </defs>
 <g id="Layer_x0020_1">
  <metadata id="CorelCorpID_0Corel-Layer"/>
  <path class="fil0" d="M18718.22 6553.09c0,0 0,0 0,0zm-2809.51 4850.67c-251.12,-128.07 -23.19,14.89 -184.25,-120.77l-3368.99 -4264.76c-221.96,-277.8 -654.82,-954.44 -1109.81,-359.52l-1740.68 4167.09c-1584.73,155.4 -2118.03,1232.69 -1704.32,2211.84 416.31,985.2 1904.05,1284.91 2746.4,450.43 317.21,-314.14 607.29,-813.28 424.87,-1445.46 -221.38,-767.19 -721.5,-558.39 -407.75,-1274.09 372.73,-850.17 899.3,-1999.07 1178.42,-2873.87l3535.53 4402.13c264.39,334.99 796.64,1008.38 1192.75,256.34l1742.13 -4092.41c1694.88,-115.45 2078.39,-1367.35 1718.26,-2206.97 -715.53,-1667.79 -3548.71,-968.06 -3216.39,901.04 124.5,699.82 759.79,647.87 426.03,1356.17 -424.01,899.87 -907,1990.69 -1232.2,2892.81z" data-index="0"/>
  <circle class="fil1" cx="9352.1" cy="12391.19" r="842.58"/>
  <circle class="fil1" cx="18408.68" cy="6862.66" r="842.58"/>
 </g>
</svg>